<svg width="217" height="57" viewBox="0 0 217 57" fill="none" xmlns="http://www.w3.org/2000/svg">
<path d="M95.6633 39.4642C89.055 39.4642 85.0801 36.4756 83.043 33.698L87.0676 29.7386C88.0054 34.5881 91.4633 36.8426 96.0111 36.8426C98.1942 36.8426 105.253 35.9276 105.253 31.3532C105.253 22.4349 85.0801 24.7413 85.0801 14.0163C85.0801 9.94158 90.1978 7.48136 96.0111 7.48136C101.924 7.48136 103.961 9.31644 107.439 9.94158L104.16 13.1439C100.913 10.7059 100.334 9.94158 95.6633 9.94158C92.0859 9.94158 89.1668 11.5454 89.1668 14.4284C89.1668 24.0002 109.228 18.9367 109.228 30.8534C109.228 36.2351 103.017 39.4642 95.6633 39.4642Z" fill="#611D2B"/>
<path d="M118.77 39.4642C120.572 37.3975 120.811 35.4947 120.811 32.2397V14.8929C120.811 11.6379 120.992 10.7685 117.736 10.7685C112.495 10.7685 110.232 11.5912 109.041 12.6232L110.179 8.4623L110.418 7.6684H134.597L134.835 8.4623L135.974 12.6232C134.783 11.5912 132.759 10.7685 127.518 10.7685C124.262 10.7685 124.363 11.6379 124.363 14.8929V32.2397C124.363 35.4947 124.363 36.947 126.325 39.4642H118.77Z" fill="#611D2B"/>
<path d="M208.788 39.5319C210.06 38.5374 209.18 35.9119 207.761 32.5704L204.776 25.8875C205.706 34.4003 202.77 39.6512 195.186 39.6512C187.553 39.6512 185.327 33.6848 188.312 27.0416L196.287 9.47726C195.211 8.00542 195.284 8.22531 194.55 7.6684H200.617L211.871 32.8091C213.486 36.0313 215.736 38.5772 216.96 39.5319H208.788ZM191.076 27.5184C188.091 34.2014 188.433 38.3929 195.186 38.3929C198.611 38.3929 200.764 36.5882 201.4 32.5307C201.644 29.4279 199.736 28.0753 196.898 27.9162L201.351 26.0864L204.336 24.893L199.638 14.3912C199.149 13.4364 198.611 12.5215 198.073 11.6861L191.076 27.5184Z" fill="#611D2B"/>
<path d="M29.3643 38.8383C30.6154 37.8605 31.3854 34.9268 31.3854 31.7193V14.626C31.3854 11.4185 30.6154 8.48487 29.3643 7.50699H34.6096C36.8713 7.50699 37.93 6.92026 40.4804 6.92026C48.0356 6.92026 54.2914 10.3233 54.2914 17.364C54.2914 21.0018 52.2222 23.9354 49.1424 25.6174C49.3349 25.9303 49.4792 26.2823 49.6236 26.6344C52.4147 34.0663 54.3877 37.8317 61.1248 37.8317C66.5625 37.8317 67.4287 35.8656 67.4287 30.3894V28.3946L58.5743 14.3522C56.5532 11.1056 54.1952 8.36753 52.5109 7.50699H60.5473C59.2961 8.48487 60.836 11.2621 62.7609 14.3522L70.5567 26.7908L78.2562 14.3522C80.2292 11.0665 81.5285 8.44576 80.3254 7.50699H85.4745C83.9827 8.36753 82.5872 12.246 80.3254 15.6882L72.0522 28.3946V30.3894C72.0522 36.2176 69.4498 39.2686 61.1248 39.4642C51.5004 39.4642 48.9499 34.301 45.7257 26.6344C45.0039 24.8742 43.079 23.0606 39.9511 23.0606C37.2563 23.0606 34.9945 23.5051 34.9945 30.2721V31.7193C34.9945 34.9268 35.7645 37.8605 37.0156 38.8383H29.3643ZM34.9945 24.9524C34.9945 22.9184 36.9675 20.4933 40.3361 20.4933C43.5602 20.4933 46.2551 21.6276 48.1318 24.0136C49.6717 22.1752 50.3454 19.398 49.8161 16.1906C48.7093 9.46275 43.6084 7.70257 39.9511 7.70257C35.2833 7.70257 34.9945 11.4185 34.9945 14.5869V24.9524Z" fill="#611D2B"/>
<path d="M176.775 39.6512L162.72 7.48136H167.878L177.533 32.6486L187.291 7.48136H190.027L177.533 39.6512H176.775Z" fill="#611D2B"/>
<path d="M17.1006 39.4642C14.864 39.4642 12.7206 39.1706 10.6704 38.5835C8.62018 37.9655 6.78742 37.0386 5.17211 35.8026C3.58786 34.5357 2.32978 32.9598 1.39787 31.0749C0.465956 29.19 0 26.9653 0 24.4006C0 21.4342 0.528083 18.9004 1.58425 16.7993C2.67148 14.6672 4.10041 12.9368 5.87104 11.6081C7.64168 10.2485 9.58316 9.25973 11.6955 8.64174C13.8078 7.99284 15.8891 7.6684 17.9393 7.6684C18.9023 7.6684 19.9118 7.74565 20.968 7.90014C22.0242 8.05464 23.0027 8.24004 23.9035 8.45634C24.8044 8.67264 25.5033 8.87348 26.0003 9.05888L25.5344 12.2107C23.8569 11.5 22.195 10.882 20.5487 10.3567C18.9333 9.83138 17.3062 10.3567 15.2871 10.3567C11.9943 11.0983 9.28805 11.9326 7.54848 14.4354C5.80892 16.9074 4.93913 19.9819 4.93913 23.659C4.93913 26.749 5.49828 29.36 6.61657 31.4921C7.76593 33.5932 9.31912 35.1846 11.2761 36.2661C13.2331 37.3167 15.4697 37.842 17.9859 37.842C19.6323 37.842 21.2631 37.6411 22.8784 37.2394C24.4937 36.8068 25.7829 36.1734 26.7459 35.3391V37.8883C25.814 38.2591 24.7733 38.5681 23.624 38.8153C22.4746 39.0316 21.3252 39.1861 20.1759 39.2788C19.0576 39.4024 18.0325 39.4642 17.1006 39.4642Z" fill="#611D2B"/>
<path d="M140.269 28.7755C138.205 22.6468 142.616 17.4611 144.818 15.9428C144.714 16.018 145.808 16.4753 151.009 17.7027C156.209 18.9301 157.922 25.1848 158.129 28.1587C159.894 18.1168 152.247 15.9428 146.778 14.2864C142.403 12.9613 140.346 8.97213 139.864 7.1432C140.071 10.9736 140.793 11.5948 141.309 12.7335C141.722 13.6445 141.137 14.4244 140.793 14.7005C136.253 19.0899 135.737 23.9142 136.046 25.7776C136.294 37.0411 145.505 39.7189 150.08 39.6499C154.448 39.5809 163.412 36.9583 164.32 27.0199C165.228 17.0816 158.438 13.3547 154.93 12.7335C141.887 10.9943 140.759 3.51984 141.825 -4.76837e-07C140.69 1.38033 139.101 5.15553 141.825 9.21369C145.23 14.2864 150.286 13.2511 154.104 15.4252C157.922 17.5992 161.714 20.8084 160.786 27.0199C160.043 31.9891 155.493 34.7277 153.636 35.1763C147.956 36.5482 142.333 34.9041 140.269 28.7755Z" fill="#611D2B"/>
<path d="M210.132 56.7887C209.357 56.7887 208.682 56.6711 208.107 56.4361C207.541 56.201 207.023 55.8309 206.553 55.3259L208.029 53.837C208.351 54.1766 208.695 54.4378 209.061 54.6207C209.427 54.7948 209.84 54.8819 210.302 54.8819C210.693 54.8819 210.994 54.8166 211.203 54.686C211.42 54.5466 211.529 54.3594 211.529 54.1244C211.529 53.9067 211.451 53.7282 211.294 53.5889C211.137 53.4409 210.928 53.3146 210.667 53.2101C210.415 53.0969 210.132 52.9924 209.818 52.8967C209.514 52.7922 209.204 52.6703 208.891 52.531C208.586 52.383 208.303 52.2045 208.042 51.9955C207.79 51.7865 207.585 51.5253 207.428 51.2119C207.272 50.8984 207.193 50.511 207.193 50.0495C207.193 49.4574 207.332 48.9524 207.611 48.5345C207.898 48.1165 208.295 47.7944 208.8 47.568C209.305 47.3416 209.892 47.2284 210.563 47.2284C211.233 47.2284 211.851 47.3416 212.417 47.568C212.983 47.7944 213.449 48.1078 213.815 48.5084L212.326 49.9842C212.047 49.7056 211.764 49.4966 211.477 49.3573C211.19 49.218 210.876 49.1483 210.537 49.1483C210.214 49.1483 209.962 49.2049 209.779 49.3181C209.596 49.4313 209.505 49.5924 209.505 49.8013C209.505 50.0103 209.583 50.1801 209.74 50.3107C209.897 50.4413 210.101 50.5588 210.354 50.6633C210.615 50.7591 210.898 50.8592 211.203 50.9637C211.516 51.0682 211.825 51.1901 212.13 51.3294C212.435 51.4687 212.713 51.6472 212.966 51.8649C213.227 52.0826 213.436 52.3568 213.593 52.6877C213.75 53.0186 213.828 53.4191 213.828 53.8893C213.828 54.8122 213.501 55.5262 212.848 56.0312C212.204 56.5362 211.299 56.7887 210.132 56.7887Z" fill="#611D2B"/>
<path d="M168.506 56.645V47.3852H170.844V56.645H168.506ZM170.36 56.645V54.6337H174.827V56.645H170.36Z" fill="#611D2B"/>
<path d="M128.581 56.645V47.3852H130.918V56.645H128.581ZM130.435 56.645V54.6729H135.45V56.645H130.435ZM130.435 52.8836V50.9637H134.98V52.8836H130.435ZM130.435 49.3573V47.3852H135.372V49.3573H130.435Z" fill="#611D2B"/>
<path d="M85.9157 56.645L82.9771 47.3852H85.2888L87.4045 54.5162H86.3989L88.4886 47.3852H90.3562L92.4459 54.5162H91.4533L93.5691 47.3852H95.8677L92.9161 56.645H91.0354L88.9457 49.5271H89.886L87.8094 56.645H85.9157Z" fill="#611D2B"/>
<path d="M43.7051 56.645V47.3852H46.0429V56.645H43.7051ZM45.5597 56.645V54.6729H50.5749V56.645H45.5597ZM45.5597 52.8836V50.9637H50.1047V52.8836H45.5597ZM45.5597 49.3573V47.3852H50.4965V49.3573H45.5597Z" fill="#611D2B"/>
<path d="M6.82485 56.7887C6.21536 56.7887 5.68859 56.6842 5.24454 56.4752C4.80919 56.2576 4.42608 55.9528 4.09521 55.561L5.61023 54.059C5.76695 54.2767 5.9498 54.4422 6.15877 54.5553C6.37644 54.6598 6.62024 54.7121 6.89015 54.7121C7.12524 54.7121 7.33421 54.6642 7.51705 54.5684C7.70861 54.4639 7.85663 54.3159 7.96111 54.1243C8.0743 53.9241 8.1309 53.6716 8.1309 53.3668V47.3852H10.4687V53.2624C10.4687 53.9937 10.3207 54.625 10.0247 55.1561C9.73733 55.6785 9.3194 56.0834 8.77086 56.3707C8.23103 56.6494 7.58236 56.7887 6.82485 56.7887Z" fill="#611D2B"/>
</svg>
