<svg width="205" height="286" viewBox="0 0 205 286" fill="none" xmlns="http://www.w3.org/2000/svg">
<path d="M30.9742 207.554C16.0925 163.349 47.8986 125.945 63.7723 114.994C63.028 115.536 70.9147 118.834 108.416 127.688C145.918 136.541 158.27 181.655 159.758 203.106C172.487 130.675 117.345 114.994 77.909 103.046C46.36 93.4883 31.528 64.715 28.0556 51.5231C29.5438 79.1515 34.7532 83.6318 38.4728 91.8456C41.4484 98.4166 37.2329 104.042 34.7532 106.033C2.0138 137.694 -1.70688 172.49 0.525201 185.931C2.31099 267.174 68.7326 286.489 101.72 285.991C133.22 285.493 197.855 266.576 204.403 194.892C210.951 123.207 161.991 96.3259 136.692 91.8456C42.6402 79.3008 34.5049 25.3882 42.1937 0C34.0088 9.95616 22.55 37.1863 42.1937 66.4574C66.7484 103.046 103.208 95.5791 130.739 111.26C158.27 126.941 185.613 150.089 178.917 194.892C173.559 230.734 140.754 250.487 127.361 253.723C86.4016 263.618 45.8558 251.76 30.9742 207.554Z" fill="#611D2B"/>
</svg>
